# xmcd
# 
# Track frame offsets:
#     150
#     22383
#     40204
#     76063
#     91443
#     124810
#     148411
#     174644
#     199409
#     231003
#     274244
#     296575
#     317917
# 
# Disc length: 4293
# 
# Revision: 0
# Processed by: cddbd v1.5.2PL0 Copyright (c) Steve Scherf et al.
# Submitted via: fre:ac v1.0.27
# 
DISCID=c910c30d
DTITLE=Various Artist - Xëëw vol. II
DYEAR=2013
DGENRE=Folklore
TTITLE0=Banda Filarmónica CECAM - Linda Mixe (Son)
TTITLE1=Banda Filarmónica CECAM - Denisse Gutiérrez - Benita (Rumba-son itsmeño)
TTITLE2=Banda Filarmónica CECAM - Mis raices (Fantasía)
TTITLE3=Banda Filarmónica CECAM - Lila Downs - El andariego (Chilena)
TTITLE4=Banda Filarmónica CECAM - Triste alegría (Son)
TTITLE5=Banda Filarmónica CECAM - Susana Harp - Teca huini sicarú (Son itsmeño)
TTITLE6=Banda Filarmónica CECAM - Son del pozo brujo (son)
TTITLE7=Banda Filarmónica CECAM - Sones mixes de Tlahuitoltepec (popurri )
TTITLE8=Banda Filarmónica CECAM - Hello Seahorse - La mentira (Bolero-dub)
TTITLE9=Banda Filarmónica CECAM - Por amor a la vida (Son)
TTITLE10=Banda Filarmónica CECAM - Colectivo Aho - Pisa ligero (Reggae-chilena)
TTITLE11=Banda Filarmónica CECAM - Ana Díaz, Belafonte Sensacional y Atl - Oración Número Uno  (Son-huapango-fusión)
TTITLE12=Alumnos CECAM - Los Mixes (son tradicional Mixe)
EXTD=Musica Regional de México (Chiapas, Oaxaca)
EXTT0=
EXTT1=
EXTT2=
EXTT3=
EXTT4=
EXTT5=
EXTT6=
EXTT7=
EXTT8=
EXTT9=
EXTT10=
EXTT11=
EXTT12=
PLAYORDER=
